<svg xmlns="http://www.w3.org/2000/svg" xmlns:xlink="http://www.w3.org/1999/xlink" width="2000" zoomAndPan="magnify" viewBox="0 0 1500 1499.999933" height="2000" preserveAspectRatio="xMidYMid meet" version="1.0"><defs><g/><clipPath id="6a01ab8031"><path d="M 0.800781 0.679688 L 889.039062 0.679688 L 889.039062 951.800781 L 0.800781 951.800781 Z M 0.800781 0.679688 " clip-rule="nonzero"/></clipPath><clipPath id="030c02bdf1"><rect x="0" width="890" y="0" height="952"/></clipPath><clipPath id="d6ae3ac154"><path d="M 387 634 L 469 634 L 469 792 L 387 792 Z M 387 634 " clip-rule="nonzero"/></clipPath><clipPath id="4e78303f2c"><path d="M 642.152344 745.734375 L 46.617188 819.851562 L -9.972656 365.160156 L 585.5625 291.042969 Z M 642.152344 745.734375 " clip-rule="nonzero"/></clipPath><clipPath id="b1da6cb696"><path d="M 669.726562 967.3125 L 74.195312 1041.429688 L -9.984375 365.042969 L 585.546875 290.925781 Z M 669.726562 967.3125 " clip-rule="nonzero"/></clipPath><clipPath id="acaf48684c"><path d="M 227 422 L 434 422 L 434 725 L 227 725 Z M 227 422 " clip-rule="nonzero"/></clipPath><clipPath id="3a783eadef"><path d="M 642.152344 745.734375 L 46.617188 819.851562 L -9.972656 365.160156 L 585.5625 291.042969 Z M 642.152344 745.734375 " clip-rule="nonzero"/></clipPath><clipPath id="c7aa5fd73b"><path d="M 669.726562 967.3125 L 74.195312 1041.429688 L -9.984375 365.042969 L 585.546875 290.925781 Z M 669.726562 967.3125 " clip-rule="nonzero"/></clipPath><clipPath id="caddb9d5eb"><path d="M 16 362 L 426 362 L 426 811 L 16 811 Z M 16 362 " clip-rule="nonzero"/></clipPath><clipPath id="7097ebb494"><path d="M 642.152344 745.734375 L 46.617188 819.851562 L -9.972656 365.160156 L 585.5625 291.042969 Z M 642.152344 745.734375 " clip-rule="nonzero"/></clipPath><clipPath id="bd4fc930b2"><path d="M 669.726562 967.3125 L 74.195312 1041.429688 L -9.984375 365.042969 L 585.546875 290.925781 Z M 669.726562 967.3125 " clip-rule="nonzero"/></clipPath><clipPath id="e1acffa1b7"><rect x="0" width="890" y="0" height="952"/></clipPath></defs><rect x="-150" width="1800" fill="#ffffff" y="-149.999993" height="1799.99992" fill-opacity="1"/><rect x="-150" width="1800" fill="#60e1ff" y="-149.999993" height="1799.99992" fill-opacity="1"/><g transform="matrix(1, 0, 0, 1, 298, 379)"><g clip-path="url(#e1acffa1b7)"><g clip-path="url(#6a01ab8031)"><g transform="matrix(1, 0, 0, 1, 0, 0.000000000000113687)"><g clip-path="url(#030c02bdf1)"><g fill="#000000" fill-opacity="1"><g transform="translate(10.255574, 408.758139)"><g><path d="M 1.59375 -110.765625 C 5.144531 -139.160156 9.582031 -167.289062 14.90625 -195.15625 C 20.226562 -223.03125 24.664062 -250.988281 28.21875 -279.03125 C 31.0625 -299.976562 30.707031 -320.925781 27.15625 -341.875 C 23.601562 -362.820312 15.613281 -379.6875 3.1875 -392.46875 L 126.734375 -392.46875 C 132.054688 -361.226562 134.273438 -333.445312 133.390625 -309.125 C 132.503906 -284.800781 129.039062 -261.898438 123 -240.421875 C 116.96875 -218.953125 108.894531 -197.300781 98.78125 -175.46875 C 88.664062 -153.632812 77.21875 -129.582031 64.4375 -103.3125 C 56.976562 -88.039062 53.601562 -76.144531 54.3125 -67.625 C 55.019531 -59.101562 58.566406 -53.421875 64.953125 -50.578125 C 71.347656 -47.742188 79.070312 -47.210938 88.125 -48.984375 C 97.175781 -50.765625 106.140625 -54.140625 115.015625 -59.109375 C 132.410156 -69.046875 151.140625 -78.539062 171.203125 -87.59375 C 191.265625 -96.644531 212.03125 -103.921875 233.5 -109.421875 C 254.976562 -114.929688 276.191406 -117.15625 297.140625 -116.09375 C 308.859375 -115.738281 319.953125 -113.070312 330.421875 -108.09375 C 340.898438 -103.125 349.6875 -95.671875 356.78125 -85.734375 L 329.09375 9.046875 C 324.476562 3.015625 319.238281 -1.773438 313.375 -5.328125 C 307.519531 -8.878906 301.578125 -11.363281 295.546875 -12.78125 C 283.117188 -15.976562 269.179688 -17.128906 253.734375 -16.234375 C 238.296875 -15.347656 222.144531 -13.570312 205.28125 -10.90625 C 188.414062 -8.25 171.375 -5.765625 154.15625 -3.453125 C 136.945312 -1.148438 120.175781 0 103.84375 0 C 66.914062 0 39.398438 -8.519531 21.296875 -25.5625 C 3.191406 -42.601562 -3.375 -71.003906 1.59375 -110.765625 Z M 1.59375 -110.765625 "/></g></g></g><g fill="#000000" fill-opacity="1"><g transform="translate(363.31222, 408.758139)"><g><path d="M 164.015625 -266.25 C 155.140625 -257.019531 146.617188 -245.21875 138.453125 -230.84375 C 130.285156 -216.46875 123.628906 -200.9375 118.484375 -184.25 C 113.335938 -167.5625 110.765625 -150.519531 110.765625 -133.125 C 110.765625 -115.726562 113.335938 -98.597656 118.484375 -81.734375 C 123.628906 -64.878906 130.285156 -49.4375 138.453125 -35.40625 C 146.617188 -21.382812 155.140625 -9.582031 164.015625 0 C 135.972656 0 108.632812 0 82 0 C 55.375 0 28.039062 0 0 0 C 8.875 -9.582031 17.394531 -21.382812 25.5625 -35.40625 C 33.726562 -49.4375 40.382812 -64.878906 45.53125 -81.734375 C 50.675781 -98.597656 53.25 -115.726562 53.25 -133.125 C 53.25 -150.519531 50.675781 -167.648438 45.53125 -184.515625 C 40.382812 -201.378906 33.726562 -216.910156 25.5625 -231.109375 C 17.394531 -245.304688 8.875 -257.019531 0 -266.25 C 28.039062 -266.25 55.375 -266.25 82 -266.25 C 108.632812 -266.25 135.972656 -266.25 164.015625 -266.25 Z M 83.609375 -372.234375 C 96.742188 -372.234375 108.546875 -370.191406 119.015625 -366.109375 C 129.484375 -362.023438 137.910156 -356.429688 144.296875 -349.328125 C 150.691406 -342.234375 153.890625 -334.425781 153.890625 -325.90625 C 153.890625 -312.769531 147.054688 -301.671875 133.390625 -292.609375 C 119.722656 -283.554688 103.128906 -279.03125 83.609375 -279.03125 C 64.078125 -279.03125 47.390625 -283.554688 33.546875 -292.609375 C 19.703125 -301.671875 12.78125 -312.769531 12.78125 -325.90625 C 12.78125 -338.675781 19.703125 -349.585938 33.546875 -358.640625 C 47.390625 -367.703125 64.078125 -372.234375 83.609375 -372.234375 Z M 83.609375 -372.234375 "/></g></g></g><g fill="#000000" fill-opacity="1"><g transform="translate(525.72879, 408.758139)"><g><path d="M 1.59375 -281.703125 C -3.375 -321.460938 3.191406 -349.863281 21.296875 -366.90625 C 39.398438 -383.945312 66.914062 -392.46875 103.84375 -392.46875 C 120.175781 -392.46875 136.945312 -391.3125 154.15625 -389 C 171.375 -386.695312 188.414062 -384.210938 205.28125 -381.546875 C 222.144531 -378.878906 238.296875 -377.101562 253.734375 -376.21875 C 269.179688 -375.332031 283.117188 -376.488281 295.546875 -379.6875 C 301.578125 -381.101562 307.519531 -383.5 313.375 -386.875 C 319.238281 -390.25 324.476562 -394.953125 329.09375 -400.984375 L 356.78125 -306.734375 C 349.6875 -296.785156 340.898438 -289.328125 330.421875 -284.359375 C 319.953125 -279.390625 308.859375 -276.550781 297.140625 -275.84375 C 276.191406 -274.78125 254.800781 -277.351562 232.96875 -283.5625 C 211.132812 -289.78125 189.921875 -297.769531 169.328125 -307.53125 C 148.742188 -317.289062 129.753906 -326.960938 112.359375 -336.546875 C 91.410156 -348.617188 75.609375 -353.144531 64.953125 -350.125 C 54.304688 -347.113281 49.160156 -339.394531 49.515625 -326.96875 C 49.878906 -314.539062 56.09375 -299.804688 68.15625 -282.765625 C 78.457031 -268.210938 92.304688 -254.007812 109.703125 -240.15625 C 127.097656 -226.3125 146.265625 -214.15625 167.203125 -203.6875 C 188.148438 -193.21875 209.097656 -185.40625 230.046875 -180.25 C 250.992188 -175.101562 270.253906 -173.859375 287.828125 -176.515625 C 305.398438 -179.179688 319.15625 -187.082031 329.09375 -200.21875 L 356.78125 -105.4375 C 335.832031 -91.238281 314.707031 -83.070312 293.40625 -80.9375 C 272.113281 -78.8125 251.171875 -81.296875 230.578125 -88.390625 C 209.984375 -95.492188 190.28125 -105.613281 171.46875 -118.75 C 152.65625 -131.882812 135.082031 -146.265625 118.75 -161.890625 C 125.851562 -138.097656 130.203125 -113.507812 131.796875 -88.125 C 133.390625 -62.75 131.703125 -33.375 126.734375 0 L 3.1875 0 C 15.613281 -12.78125 23.601562 -29.640625 27.15625 -50.578125 C 30.707031 -71.523438 31.0625 -92.472656 28.21875 -113.421875 C 24.664062 -141.472656 20.226562 -169.519531 14.90625 -197.5625 C 9.582031 -225.601562 5.144531 -253.648438 1.59375 -281.703125 Z M 1.59375 -281.703125 "/></g></g></g><g fill="#000000" fill-opacity="1"><g transform="translate(360.118769, 818.258038)"><g><path d="M 164.015625 -266.25 C 155.140625 -257.019531 146.617188 -245.21875 138.453125 -230.84375 C 130.285156 -216.46875 123.628906 -200.9375 118.484375 -184.25 C 113.335938 -167.5625 110.765625 -150.519531 110.765625 -133.125 C 110.765625 -115.726562 113.335938 -98.597656 118.484375 -81.734375 C 123.628906 -64.878906 130.285156 -49.4375 138.453125 -35.40625 C 146.617188 -21.382812 155.140625 -9.582031 164.015625 0 C 135.972656 0 108.632812 0 82 0 C 55.375 0 28.039062 0 0 0 C 8.875 -9.582031 17.394531 -21.382812 25.5625 -35.40625 C 33.726562 -49.4375 40.382812 -64.878906 45.53125 -81.734375 C 50.675781 -98.597656 53.25 -115.726562 53.25 -133.125 C 53.25 -150.519531 50.675781 -167.648438 45.53125 -184.515625 C 40.382812 -201.378906 33.726562 -216.910156 25.5625 -231.109375 C 17.394531 -245.304688 8.875 -257.019531 0 -266.25 C 28.039062 -266.25 55.375 -266.25 82 -266.25 C 108.632812 -266.25 135.972656 -266.25 164.015625 -266.25 Z M 83.609375 -372.234375 C 96.742188 -372.234375 108.546875 -370.191406 119.015625 -366.109375 C 129.484375 -362.023438 137.910156 -356.429688 144.296875 -349.328125 C 150.691406 -342.234375 153.890625 -334.425781 153.890625 -325.90625 C 153.890625 -312.769531 147.054688 -301.671875 133.390625 -292.609375 C 119.722656 -283.554688 103.128906 -279.03125 83.609375 -279.03125 C 64.078125 -279.03125 47.390625 -283.554688 33.546875 -292.609375 C 19.703125 -301.671875 12.78125 -312.769531 12.78125 -325.90625 C 12.78125 -338.675781 19.703125 -349.585938 33.546875 -358.640625 C 47.390625 -367.703125 64.078125 -372.234375 83.609375 -372.234375 Z M 83.609375 -372.234375 "/></g></g></g><g fill="#000000" fill-opacity="1"><g transform="translate(522.535332, 818.258038)"><g><path d="M 358.921875 -306.734375 C 348.617188 -306.734375 334.148438 -306.910156 315.515625 -307.265625 C 296.878906 -307.617188 276.378906 -307.972656 254.015625 -308.328125 C 227.390625 -308.679688 208.128906 -306.375 196.234375 -301.40625 C 184.335938 -296.4375 177.675781 -289.332031 176.25 -280.09375 C 174.832031 -270.863281 177.140625 -259.859375 183.171875 -247.078125 C 189.210938 -234.304688 197.023438 -220.285156 206.609375 -205.015625 C 216.203125 -189.753906 225.878906 -173.691406 235.640625 -156.828125 C 245.398438 -139.960938 253.5625 -122.566406 260.125 -104.640625 C 266.695312 -86.710938 269.894531 -68.960938 269.71875 -51.390625 C 269.539062 -33.816406 263.945312 -16.6875 252.9375 0 L 97.453125 0 C 112.710938 -16.332031 123.269531 -33.726562 129.125 -52.1875 C 134.988281 -70.644531 137.921875 -89.546875 137.921875 -108.890625 C 137.921875 -128.242188 136.5 -147.414062 133.65625 -166.40625 C 130.820312 -185.40625 128.070312 -203.691406 125.40625 -221.265625 C 122.738281 -238.835938 121.847656 -255.078125 122.734375 -269.984375 C 123.628906 -284.890625 127.804688 -297.671875 135.265625 -308.328125 C 110.410156 -307.972656 88.304688 -306.992188 68.953125 -305.390625 C 49.609375 -303.796875 35.851562 -301.578125 27.6875 -298.734375 L 0 -393.53125 C 10.289062 -393.53125 24.578125 -393.351562 42.859375 -393 C 61.148438 -392.644531 81.476562 -392.289062 103.84375 -391.9375 C 126.207031 -391.582031 149.191406 -391.3125 172.796875 -391.125 C 196.410156 -390.945312 218.953125 -391.125 240.421875 -391.65625 C 261.898438 -392.195312 280.71875 -393.265625 296.875 -394.859375 C 313.03125 -396.453125 324.65625 -398.492188 331.75 -400.984375 Z M 358.921875 -306.734375 "/></g></g></g></g></g></g><g clip-path="url(#d6ae3ac154)"><g clip-path="url(#4e78303f2c)"><g clip-path="url(#b1da6cb696)"><path fill="#000000" d="M 468.011719 787.621094 C 462.015625 788.742188 456.023438 789.875 450.035156 791.003906 C 437.105469 736.390625 418.640625 683.429688 387.960938 634.085938 C 422.386719 673.558594 449.074219 724.738281 468.011719 787.621094 Z M 468.011719 787.621094 " fill-opacity="1" fill-rule="evenodd"/></g></g></g><g clip-path="url(#acaf48684c)"><g clip-path="url(#3a783eadef)"><g clip-path="url(#c7aa5fd73b)"><path fill="#000000" d="M 409.578125 724.652344 C 388.429688 675.824219 360.925781 634.78125 311.675781 603.273438 C 285.636719 586.617188 261.367188 564.597656 246.027344 537.765625 C 200.117188 457.449219 245.285156 420.148438 317.96875 422.875 C 372.042969 424.910156 403.011719 452.5625 433.730469 475.25 C 423.164062 488.847656 412.585938 502.441406 402.015625 516.039062 C 374.683594 500.765625 349.425781 470.675781 307.902344 471.335938 C 269.585938 471.949219 259.082031 515.03125 281.558594 536.792969 C 351.117188 604.144531 405.140625 655.410156 409.578125 724.652344 Z M 409.578125 724.652344 " fill-opacity="1" fill-rule="evenodd"/></g></g></g><g clip-path="url(#caddb9d5eb)"><g clip-path="url(#7097ebb494)"><g clip-path="url(#bd4fc930b2)"><path fill="#000000" d="M 425.960938 810.121094 C 389.632812 709.097656 324.605469 655.5 243.308594 617.542969 C 144.800781 571.550781 113.367188 476.863281 92.375 384.179688 C 66.949219 376.976562 41.523438 369.785156 16.089844 362.585938 C 42.550781 493.019531 101.335938 597.855469 223.347656 641.910156 C 319.128906 676.496094 378.703125 736.546875 425.960938 810.121094 Z M 425.960938 810.121094 " fill-opacity="1" fill-rule="evenodd"/></g></g></g></g></g></svg>